<svg viewBox="0 0 87 87" fill="none" xmlns="http://www.w3.org/2000/svg">
  <path d="M48.59 86.3644C48.5604 77.3388 53.1267 67.8702 60.476 60.5369C67.8247 53.2043 77.3438 48.6201 86.4 48.5904L86.3647 37.7915C73.8271 37.8326 61.7151 44.0464 52.8491 52.8929C43.9837 61.739 37.7513 73.8314 37.7925 86.3998L48.59 86.3644Z" fill="#0F0F10"/>
  <path d="M48.5898 86.382C48.5897 73.8285 42.3675 61.7266 33.5116 52.8706C24.6555 44.0147 12.5536 37.7926 0 37.7926L3.9085e-05 48.5901C9.04186 48.5901 18.5359 53.1652 25.8765 60.5057C33.217 67.8463 37.7922 77.3403 37.7923 86.3821L48.5898 86.382Z" fill="#0F0F10"/>
  <path d="M37.7929 0.000186511C37.7929 8.81036 33.2308 18.311 25.8642 25.7269C18.5021 33.138 9.00902 37.7926 0 37.7926L3.9085e-05 48.5901C12.5865 48.5901 24.6901 42.2307 33.5247 33.3372C42.3545 24.4485 48.5895 12.3533 48.5895 0L37.7929 0.000186511Z" fill="#0F0F10"/>
  <path d="M48.5895 0C48.5895 9.04185 53.1652 18.5357 60.5058 25.8763C67.8464 33.2169 77.3403 37.7918 86.3822 37.7918L86.3822 48.5894C73.8286 48.5893 61.7267 42.3674 52.8707 33.5113C44.0147 24.6553 37.7929 12.5538 37.7929 0.000186511L48.5895 0Z" fill="url(#paint0_linear_favicon)"/>
  <defs>
    <linearGradient id="paint0_linear_favicon" x1="39.0554" y1="4.24454" x2="82.8" y2="46.8675" gradientUnits="userSpaceOnUse">
      <stop stop-color="#897EED"/>
      <stop offset="1" stop-color="#6D23ED"/>
    </linearGradient>
  </defs>
</svg>
